<svg width="91" height="40" viewBox="0 0 91 40" fill="none" xmlns="http://www.w3.org/2000/svg">
<path d="M1.208 30.212C0.944 30.212 0.728 30.128 0.56 29.96C0.368 29.816 0.272 29.612 0.272 29.348C0.272 29.012 0.44 28.616 0.776 28.16C1.088 27.704 1.616 27.2 2.36 26.648C2.48 26.336 2.564 26.048 2.612 25.784C2.684 25.52 2.744 25.232 2.792 24.92C2.96 23.864 3.26 22.796 3.692 21.716C4.124 20.612 4.556 19.58 4.988 18.62C4.532 18.524 4.076 18.164 3.62 17.54C3.188 16.916 2.972 16.256 2.972 15.56C2.972 15.392 3.008 15.116 3.08 14.732C3.152 14.324 3.272 14.12 3.44 14.12C3.656 14.12 3.764 14.3 3.764 14.66C3.764 15.02 3.764 15.272 3.764 15.416C3.764 15.92 3.908 16.424 4.196 16.928C4.484 17.432 4.832 17.792 5.24 18.008C5.648 17.12 6.164 16.076 6.788 14.876C7.412 13.652 8.12 12.368 8.912 11.024C9.704 9.656 10.568 8.324 11.504 7.028C12.44 5.732 13.424 4.556 14.456 3.5C15.512 2.444 16.604 1.604 17.732 0.979998C18.86 0.355999 20.012 0.0439994 21.188 0.0439994C22.148 0.0439994 22.844 0.295999 23.276 0.799998C23.708 1.28 23.924 1.94 23.924 2.78C23.924 3.668 23.708 4.688 23.276 5.84C22.844 6.992 22.232 8.192 21.44 9.44C20.672 10.664 19.772 11.864 18.74 13.04C17.708 14.192 16.58 15.248 15.356 16.208C14.132 17.144 12.86 17.888 11.54 18.44C10.22 18.992 8.9 19.268 7.58 19.268C7.316 19.268 7.052 19.256 6.788 19.232C6.524 19.184 6.272 19.112 6.032 19.016C5.552 20.144 5.108 21.272 4.7 22.4C4.292 23.528 3.968 24.704 3.728 25.928C5.576 24.8 7.58 23.984 9.74 23.48C11.9 22.976 14.06 22.724 16.22 22.724C16.796 22.724 17.456 22.832 18.2 23.048C18.944 23.24 19.58 23.552 20.108 23.984C20.66 24.416 20.936 25.004 20.936 25.748C20.936 26.348 20.876 26.648 20.756 26.648C20.636 26.648 20.492 26.432 20.324 26C19.988 25.136 19.46 24.596 18.74 24.38C18.02 24.14 17.228 24.02 16.364 24.02C14.9 24.02 13.64 24.092 12.584 24.236C11.552 24.356 10.592 24.548 9.704 24.812C8.84 25.076 7.94 25.4 7.004 25.784C6.068 26.168 4.964 26.612 3.692 27.116C3.5 28.22 3.14 29.012 2.612 29.492C2.108 29.972 1.64 30.212 1.208 30.212ZM7.4 18.62C8.672 18.62 9.932 18.344 11.18 17.792C12.452 17.216 13.664 16.46 14.816 15.524C15.992 14.564 17.072 13.508 18.056 12.356C19.04 11.204 19.892 10.04 20.612 8.864C21.356 7.664 21.932 6.536 22.34 5.48C22.748 4.4 22.952 3.488 22.952 2.744C22.952 2.192 22.82 1.76 22.556 1.448C22.316 1.136 21.932 0.979998 21.404 0.979998C20.516 0.979998 19.58 1.292 18.596 1.916C17.636 2.54 16.652 3.38 15.644 4.436C14.636 5.492 13.652 6.656 12.692 7.928C11.756 9.2 10.868 10.496 10.028 11.816C9.212 13.112 8.48 14.348 7.832 15.524C7.184 16.676 6.68 17.648 6.32 18.44C6.44 18.512 6.62 18.56 6.86 18.584C7.1 18.608 7.28 18.62 7.4 18.62ZM24.1231 26.468C23.2591 26.468 22.5031 25.964 21.8551 24.956C21.2311 23.924 20.9191 22.304 20.9191 20.096C20.9191 18.656 21.0991 17.504 21.4591 16.64C21.8191 15.752 22.2631 15.104 22.7911 14.696C23.3191 14.288 23.8231 14.084 24.3031 14.084C24.7831 14.084 25.1911 14.252 25.5271 14.588C25.8631 14.9 26.0311 15.356 26.0311 15.956C26.0311 16.532 25.8631 17.144 25.5271 17.792C25.1911 18.416 24.7831 18.992 24.3031 19.52C23.8471 20.024 23.3911 20.36 22.9351 20.528C22.8391 20.576 22.7191 20.6 22.5751 20.6C22.4791 20.6 22.4311 20.564 22.4311 20.492C22.4311 20.3 22.6231 20.084 23.0071 19.844C23.4871 19.508 23.9431 19.004 24.3751 18.332C24.8071 17.636 25.0231 17.024 25.0231 16.496C25.0231 16.184 24.9511 15.944 24.8071 15.776C24.6631 15.584 24.4951 15.488 24.3031 15.488C23.9431 15.488 23.5471 15.776 23.1151 16.352C22.7071 16.904 22.4071 17.864 22.2151 19.232C22.1671 19.616 22.1191 19.988 22.0711 20.348C22.0471 20.684 22.0351 21.02 22.0351 21.356C22.0351 22.7 22.2391 23.756 22.6471 24.524C23.0551 25.268 23.5951 25.64 24.2671 25.64C24.8431 25.64 25.4911 25.304 26.2111 24.632C26.9311 23.936 27.6391 22.856 28.3351 21.392C28.5031 21.008 28.6951 20.816 28.9111 20.816C29.0551 20.816 29.1271 20.912 29.1271 21.104C29.1271 21.272 29.0791 21.452 28.9831 21.644C28.3591 23.18 27.6031 24.368 26.7151 25.208C25.8271 26.048 24.9631 26.468 24.1231 26.468ZM30.5398 26.468C29.6758 26.468 28.9198 25.964 28.2718 24.956C27.6478 23.924 27.3358 22.304 27.3358 20.096C27.3358 18.656 27.5158 17.504 27.8758 16.64C28.2358 15.752 28.6798 15.104 29.2078 14.696C29.7358 14.288 30.2398 14.084 30.7198 14.084C31.1998 14.084 31.6078 14.252 31.9438 14.588C32.2798 14.9 32.4478 15.356 32.4478 15.956C32.4478 16.532 32.2798 17.144 31.9438 17.792C31.6078 18.416 31.1998 18.992 30.7198 19.52C30.2638 20.024 29.8078 20.36 29.3518 20.528C29.2558 20.576 29.1358 20.6 28.9918 20.6C28.8958 20.6 28.8478 20.564 28.8478 20.492C28.8478 20.3 29.0398 20.084 29.4238 19.844C29.9038 19.508 30.3598 19.004 30.7918 18.332C31.2238 17.636 31.4398 17.024 31.4398 16.496C31.4398 16.184 31.3678 15.944 31.2238 15.776C31.0798 15.584 30.9118 15.488 30.7198 15.488C30.3598 15.488 29.9638 15.776 29.5318 16.352C29.1238 16.904 28.8238 17.864 28.6318 19.232C28.5838 19.616 28.5358 19.988 28.4878 20.348C28.4638 20.684 28.4518 21.02 28.4518 21.356C28.4518 22.7 28.6558 23.756 29.0638 24.524C29.4718 25.268 30.0118 25.64 30.6838 25.64C31.2598 25.64 31.9078 25.304 32.6278 24.632C33.3478 23.936 34.0558 22.856 34.7518 21.392C34.9198 21.008 35.1118 20.816 35.3278 20.816C35.4718 20.816 35.5438 20.912 35.5438 21.104C35.5438 21.272 35.4958 21.452 35.3998 21.644C34.7758 23.18 34.0198 24.368 33.1318 25.208C32.2438 26.048 31.3798 26.468 30.5398 26.468ZM50.2591 28.376C48.7471 28.376 47.3311 28.064 46.0111 27.44C44.6911 26.816 43.6231 25.808 42.8071 24.416C42.0151 23.024 41.6191 21.188 41.6191 18.908C41.6191 18.404 41.6311 17.888 41.6551 17.36C41.7031 16.808 41.7751 16.244 41.8711 15.668C41.7031 15.644 41.5351 15.644 41.3671 15.668C41.1991 15.668 41.0551 15.668 40.9351 15.668C40.7191 15.668 40.5511 15.62 40.4311 15.524C40.3111 15.428 40.2391 15.224 40.2151 14.912C40.2151 14.576 40.2871 14.264 40.4311 13.976C40.5991 13.688 40.7671 13.64 40.9351 13.832C41.1991 14.048 41.6791 14.18 42.3751 14.228C42.8551 12.548 43.5751 11 44.5351 9.584C45.5191 8.168 46.6351 6.896 47.8831 5.768C49.1551 4.616 50.4631 3.644 51.8071 2.852C53.1751 2.036 54.4831 1.424 55.7311 1.016C56.9791 0.584 58.0831 0.368 59.0431 0.368C59.8591 0.368 60.5071 0.536 60.9871 0.872C61.4911 1.208 61.7431 1.736 61.7431 2.456C61.7431 2.768 61.6951 3.08 61.5991 3.392C61.4071 4.208 61.0951 4.856 60.6631 5.336C60.2551 5.816 59.9551 6.056 59.7631 6.056C59.6431 6.056 59.5831 5.996 59.5831 5.876C59.5831 5.756 59.6791 5.504 59.8711 5.12C60.2311 4.472 60.4111 3.908 60.4111 3.428C60.4111 2.828 60.1711 2.384 59.6911 2.096C59.2111 1.784 58.5751 1.628 57.7831 1.628C56.7751 1.628 55.6111 1.88 54.2911 2.384C52.9711 2.888 51.6271 3.656 50.2591 4.688C48.8911 5.696 47.6311 6.992 46.4791 8.576C45.3511 10.136 44.4751 11.996 43.8511 14.156C44.3071 14.108 44.7751 14.06 45.2551 14.012C45.7351 13.94 46.1671 13.856 46.5511 13.76C49.7191 13.064 52.1071 12.572 53.7151 12.284C55.3471 11.972 56.3671 11.816 56.7751 11.816C57.1351 11.816 57.1111 11.9 56.7031 12.068C56.2951 12.236 55.5991 12.476 54.6151 12.788C53.6551 13.076 52.4791 13.4 51.0871 13.76C49.6951 14.096 48.1831 14.444 46.5511 14.804C46.1431 14.9 45.6631 15.02 45.1111 15.164C44.5831 15.308 44.0431 15.44 43.4911 15.56C43.3471 16.592 43.2751 17.564 43.2751 18.476C43.2751 20.636 43.6351 22.388 44.3551 23.732C45.0751 25.052 46.0231 26.012 47.1991 26.612C48.3751 27.236 49.6471 27.548 51.0151 27.548C52.4071 27.548 53.7871 27.272 55.1551 26.72C56.5471 26.168 57.8071 25.4 58.9351 24.416C60.0631 23.408 60.9151 22.244 61.4911 20.924C61.7071 20.468 61.8991 20.24 62.0671 20.24C62.1871 20.24 62.2471 20.336 62.2471 20.528C62.2471 20.648 62.2111 20.816 62.1391 21.032C61.7791 22.088 61.1911 23.072 60.3751 23.984C59.5591 24.872 58.5991 25.64 57.4951 26.288C56.3911 26.96 55.2151 27.476 53.9671 27.836C52.7191 28.196 51.4831 28.376 50.2591 28.376ZM61.094 25.712C60.782 25.712 60.518 25.556 60.302 25.244C60.11 24.932 60.026 24.428 60.05 23.732C60.05 23.396 60.146 22.844 60.338 22.076C60.53 21.284 60.734 20.408 60.95 19.448C61.19 18.488 61.394 17.552 61.562 16.64C61.754 15.728 61.85 14.984 61.85 14.408C61.85 14.144 61.826 13.928 61.778 13.76C61.73 13.568 61.61 13.472 61.418 13.472C61.274 13.472 61.142 13.544 61.022 13.688C60.902 13.808 60.782 13.928 60.662 14.048C60.494 14.264 60.398 14.372 60.374 14.372C60.35 14.372 60.338 14.336 60.338 14.264C60.338 13.976 60.446 13.664 60.662 13.328C60.902 12.968 61.178 12.788 61.49 12.788C61.874 12.788 62.15 12.98 62.318 13.364C62.486 13.724 62.57 14.24 62.57 14.912C62.57 15.656 62.486 16.496 62.318 17.432C62.15 18.368 61.97 19.244 61.778 20.06C61.682 20.444 61.598 20.912 61.526 21.464C61.454 22.016 61.418 22.556 61.418 23.084C61.418 23.54 61.454 23.924 61.526 24.236C61.622 24.524 61.79 24.668 62.03 24.668C62.222 24.668 62.45 24.56 62.714 24.344C63.002 24.104 63.338 23.708 63.722 23.156C64.274 22.388 64.766 21.512 65.198 20.528C65.654 19.52 66.074 18.608 66.458 17.792C66.602 17.456 66.782 17.288 66.998 17.288C67.55 17.288 67.826 17.588 67.826 18.188C67.826 18.644 67.754 19.22 67.61 19.916C67.49 20.588 67.43 21.236 67.43 21.86C67.43 22.988 67.646 23.552 68.078 23.552C68.294 23.552 68.51 23.42 68.726 23.156C68.966 22.868 69.098 22.7 69.122 22.652C69.266 22.484 69.398 22.4 69.518 22.4C69.662 22.4 69.734 22.484 69.734 22.652C69.734 22.964 69.554 23.3 69.194 23.66C68.834 24.02 68.45 24.2 68.042 24.2C67.658 24.2 67.346 24.068 67.106 23.804C66.89 23.516 66.686 23.144 66.494 22.688C66.278 22.136 66.17 21.656 66.17 21.248C66.17 20.84 66.146 20.444 66.098 20.06C65.93 20.636 65.642 21.248 65.234 21.896C64.85 22.544 64.406 23.168 63.902 23.768C63.422 24.344 62.93 24.812 62.426 25.172C61.922 25.532 61.478 25.712 61.094 25.712ZM76.3847 26.468C76.0727 26.468 75.7967 26.276 75.5567 25.892C75.3167 25.484 75.1967 24.716 75.1967 23.588C75.1967 22.7 75.2687 21.728 75.4127 20.672C75.5567 19.592 75.7127 18.524 75.8807 17.468C76.0727 16.412 76.2407 15.476 76.3847 14.66C76.5287 13.82 76.6007 13.208 76.6007 12.824C76.6007 12.152 76.3967 11.816 75.9887 11.816C75.6047 11.816 75.2087 12.008 74.8007 12.392C74.4167 12.776 74.0447 13.244 73.6847 13.796C73.3487 14.348 73.0487 14.888 72.7847 15.416C72.5447 15.92 72.3887 16.292 72.3167 16.532C71.9807 17.468 71.7407 18.404 71.5967 19.34C71.4527 20.252 71.3807 21.2 71.3807 22.184C71.3807 22.592 71.3927 23.012 71.4167 23.444C71.4647 23.876 71.5007 24.32 71.5247 24.776C71.5727 25.016 71.5007 25.316 71.3087 25.676C71.1407 26.012 70.9367 26.18 70.6967 26.18C70.5287 26.18 70.3847 26.072 70.2647 25.856C70.1447 25.64 70.0607 25.448 70.0127 25.28C69.9167 24.992 69.8447 24.692 69.7967 24.38C69.7487 24.044 69.7007 23.756 69.6527 23.516C69.4847 22.532 69.3287 21.536 69.1847 20.528C69.0407 19.496 68.8367 18.5 68.5727 17.54C68.5007 17.276 68.4047 17 68.2847 16.712C68.1887 16.4 68.0327 16.148 67.8167 15.956C67.7687 15.908 67.6967 15.86 67.6007 15.812C67.5047 15.74 67.4567 15.68 67.4567 15.632C67.4567 15.536 67.5887 15.488 67.8527 15.488C68.1407 15.488 68.4287 15.632 68.7167 15.92C69.0047 16.208 69.2687 16.592 69.5087 17.072C69.7967 17.672 70.0367 18.308 70.2287 18.98C70.4447 19.652 70.6127 20.192 70.7327 20.6C70.8767 19.736 71.0327 18.968 71.2007 18.296C71.3687 17.72 71.5967 17.036 71.8847 16.244C72.1727 15.428 72.5327 14.636 72.9647 13.868C73.3967 13.076 73.9127 12.428 74.5127 11.924C75.1127 11.396 75.8087 11.132 76.6007 11.132C77.7527 11.132 78.3287 11.804 78.3287 13.148C78.3287 13.844 78.2087 14.612 77.9687 15.452C77.7287 16.268 77.4647 17.024 77.1767 17.72C76.9127 18.416 76.7327 18.896 76.6367 19.16C76.5167 19.496 76.3847 19.952 76.2407 20.528C76.1207 21.104 76.0127 21.704 75.9167 22.328C75.8447 22.952 75.8087 23.528 75.8087 24.056C75.8087 24.512 75.8567 24.896 75.9527 25.208C76.0727 25.496 76.2527 25.64 76.4927 25.64C76.7327 25.64 76.9487 25.532 77.1407 25.316C77.3327 25.076 77.4887 24.86 77.6087 24.668C77.7527 24.476 77.8247 24.44 77.8247 24.56C77.8727 24.92 77.7407 25.328 77.4287 25.784C77.1407 26.24 76.7927 26.468 76.3847 26.468ZM79.1615 14.372C78.9935 14.372 78.8495 14.288 78.7295 14.12C78.6335 13.928 78.5855 13.724 78.5855 13.508C78.5855 13.148 78.6935 12.8 78.9095 12.464C79.1495 12.104 79.4135 11.912 79.7015 11.888H79.8095C80.0975 11.888 80.2895 11.948 80.3855 12.068C80.5055 12.188 80.5655 12.344 80.5655 12.536C80.5655 12.896 80.3975 13.292 80.0615 13.724C79.7495 14.156 79.4495 14.372 79.1615 14.372ZM73.1495 39.14C72.2615 39.14 71.5175 38.912 70.9175 38.456C70.2935 38 69.9815 37.364 69.9815 36.548C69.9815 35.78 70.3415 34.892 71.0615 33.884C71.7575 32.876 72.9695 31.82 74.6975 30.716C75.1055 30.452 75.5255 30.212 75.9575 29.996C76.3655 29.804 76.7975 29.588 77.2535 29.348C77.3255 29.3 77.4215 29.276 77.5415 29.276C77.5895 29.276 77.6135 29.3 77.6135 29.348C77.6135 29.516 77.4815 29.648 77.2175 29.744C75.9695 30.368 74.9855 31.04 74.2655 31.76C73.5455 32.48 72.9215 33.224 72.3935 33.992C71.8895 34.736 71.5415 35.336 71.3495 35.792C71.1575 36.272 71.0615 36.704 71.0615 37.088C71.0615 38 71.5175 38.456 72.4295 38.456C72.8615 38.456 73.3655 38.348 73.9415 38.132C74.5175 37.916 75.1295 37.568 75.7775 37.088C77.0015 36.152 77.9375 35.096 78.5855 33.92C79.2575 32.768 79.7255 31.544 79.9895 30.248C80.2535 28.952 80.3855 27.656 80.3855 26.36C80.3855 25.112 80.3015 23.9 80.1335 22.724C79.9895 21.524 79.8215 20.408 79.6295 19.376C79.4615 18.344 79.3415 17.456 79.2695 16.712V16.676C79.2695 16.484 79.3535 16.34 79.5215 16.244C79.6895 16.124 79.8695 16.064 80.0615 16.064C80.2295 16.064 80.3735 16.112 80.4935 16.208C80.6375 16.304 80.7215 16.472 80.7455 16.712C80.7935 17.096 80.8415 17.684 80.8895 18.476C80.9615 19.268 81.0695 20.408 81.2135 21.896C81.3575 23.216 81.4295 24.452 81.4295 25.604C81.4295 28.076 81.1655 30.176 80.6375 31.904C80.1095 33.632 79.4135 35.024 78.5495 36.08C77.7095 37.16 76.8215 37.94 75.8855 38.42C74.9255 38.9 74.0135 39.14 73.1495 39.14ZM87.0537 13.976C86.8377 13.976 86.6817 13.868 86.5857 13.652C86.5137 13.412 86.4777 13.244 86.4777 13.148C86.4777 12.764 86.5857 12.404 86.8017 12.068C87.0417 11.708 87.3057 11.516 87.5937 11.492H87.7017C87.9897 11.492 88.1817 11.564 88.2777 11.708C88.3977 11.828 88.4577 11.984 88.4577 12.176C88.4577 12.536 88.3017 12.932 87.9897 13.364C87.6777 13.772 87.3657 13.976 87.0537 13.976ZM85.2177 26.864C84.4017 26.864 83.8497 26.552 83.5617 25.928C83.2737 25.304 83.1297 24.584 83.1297 23.768C83.1297 22.952 83.2137 22.1 83.3817 21.212C83.5737 20.3 83.7777 19.472 83.9937 18.728C84.2337 17.984 84.4137 17.456 84.5337 17.144C84.7977 16.592 85.0617 16.124 85.3257 15.74C85.5897 15.332 85.8777 15.128 86.1897 15.128C86.4057 15.128 86.5617 15.212 86.6577 15.38C86.7777 15.524 86.8377 15.716 86.8377 15.956C86.8377 16.436 86.7057 16.928 86.4417 17.432C86.1777 17.912 85.9377 18.368 85.7217 18.8C85.2417 19.784 84.8577 20.66 84.5697 21.428C84.3057 22.196 84.1737 23.156 84.1737 24.308C84.1737 25.052 84.2457 25.592 84.3897 25.928C84.5577 26.264 84.7857 26.432 85.0737 26.432C85.4577 26.432 85.9017 26.216 86.4057 25.784C86.9097 25.328 87.4257 24.728 87.9537 23.984C88.4817 23.24 88.9497 22.436 89.3577 21.572C89.6217 21.02 89.8257 20.744 89.9697 20.744C90.0657 20.744 90.1137 20.84 90.1137 21.032C90.1137 21.296 90.0057 21.68 89.7897 22.184C89.5977 22.664 89.3577 23.156 89.0697 23.66C88.8057 24.164 88.5537 24.56 88.3137 24.848C87.9057 25.376 87.4377 25.844 86.9097 26.252C86.3817 26.66 85.8177 26.864 85.2177 26.864Z" fill="#F75B48"/>
</svg>
